<svg xmlns="http://www.w3.org/2000/svg" viewBox="0 0 397.81 607.78"><defs><style>.cls-1{fill:#527275;}.cls-2{fill:#fff;}.cls-3{opacity:0.04;}.cls-4{opacity:0.12;}.cls-5{fill:#153e49;}.cls-6{fill:#e6e6e6;}.cls-7{opacity:0.22;}.cls-8{fill:#8cad81;}.cls-9{fill:#f7d77f;}.cls-10{fill:#e5c573;}</style></defs><g id="object"><rect class="cls-1" x="24.69" y="60.71" width="351.95" height="480.69" rx="21.37"/><rect class="cls-2" x="47.74" y="98.63" width="305.85" height="417.73" rx="5.62"/><path class="cls-3" d="M749,634.62l-313.54.31c-5.09,1.07-19.35-2.84-21.38-18.48l1.22-439.67Z" transform="translate(-389.41 -94.01)"/><ellipse class="cls-4" cx="198.9" cy="586.56" rx="198.9" ry="21.21"/><path class="cls-5" d="M527.24,334.73H455.47V263h71.77ZM458,332.15h66.63V265.53H458Z" transform="translate(-389.41 -94.01)"/><path class="cls-5" d="M527.24,443.11H455.47V371.34h71.77ZM458,440.54h66.63V373.91H458Z" transform="translate(-389.41 -94.01)"/><path class="cls-5" d="M527.24,551.5H455.47V479.72h71.77ZM458,548.92h66.63V482.29H458Z" transform="translate(-389.41 -94.01)"/><rect class="cls-6" x="176.02" y="174.84" width="147.85" height="7.36"/><rect class="cls-6" x="176.02" y="197.47" width="147.85" height="7.36"/><rect class="cls-6" x="176.02" y="220.09" width="147.85" height="7.36"/><rect class="cls-6" x="176.02" y="285.62" width="147.85" height="7.36"/><rect class="cls-6" x="176.02" y="308.25" width="147.85" height="7.36"/><rect class="cls-6" x="176.02" y="330.87" width="147.85" height="7.36"/><rect class="cls-6" x="176.02" y="389.7" width="147.85" height="7.36"/><rect class="cls-6" x="176.02" y="412.33" width="147.85" height="7.36"/><rect class="cls-6" x="176.02" y="434.95" width="147.85" height="7.36"/><polygon class="cls-7" points="149.37 160.13 98.17 197.78 84.4 183.8 71.23 192.6 97.61 213.38 158.19 162.53 149.37 160.13"/><polygon class="cls-8" points="73.92 189.29 83.18 183.09 97.01 197.13 148.87 159 152.76 160.06 96.63 207.19 73.92 189.29"/><path class="cls-8" d="M486.05,302.18l-24-18.93,10.66-7.13,13.81,14,51.62-38,5.66,1.54Zm-21.43-18.83L486,300.22l54.55-45.79-2.14-.59-52.09,38.31-13.85-14.06Z" transform="translate(-389.41 -94.01)"/><polygon class="cls-7" points="154.6 281.85 103.4 319.5 89.63 305.52 76.47 314.32 102.83 335.1 163.42 284.25 154.6 281.85"/><polygon class="cls-8" points="79.14 311.01 88.41 304.81 102.24 318.85 154.09 280.72 157.99 281.78 101.86 328.9 79.14 311.01"/><path class="cls-8" d="M491.28,423.89l-24-18.92,10.66-7.13,13.81,14,51.62-38,5.66,1.54Zm-21.43-18.82,21.4,16.86,54.55-45.79-2.14-.58-52.09,38.31L477.72,399.8Z" transform="translate(-389.41 -94.01)"/><polygon class="cls-7" points="154.6 381.71 103.4 419.36 89.63 405.37 76.47 414.18 102.83 434.95 163.42 384.1 154.6 381.71"/><polygon class="cls-8" points="79.14 410.87 88.41 404.67 102.24 418.71 154.09 380.58 157.99 381.64 101.86 428.76 79.14 410.87"/><path class="cls-8" d="M491.28,523.75l-24-18.92,10.66-7.13,13.81,14,51.62-38L549,475.3Zm-21.43-18.82,21.4,16.86L545.8,476l-2.14-.58-52.09,38.3-13.85-14.06Z" transform="translate(-389.41 -94.01)"/><path class="cls-9" d="M687.22,142.78H634.91v-7.47A41.3,41.3,0,0,0,593.61,94h-.83a41.3,41.3,0,0,0-41.3,41.3v7.47H499.17a4.9,4.9,0,0,0-4.9,4.9v52.78a4.9,4.9,0,0,0,4.9,4.9H687.22a4.91,4.91,0,0,0,4.9-4.9V147.68A4.91,4.91,0,0,0,687.22,142.78Zm-94-4.91A13.8,13.8,0,1,1,607,124.07,13.8,13.8,0,0,1,593.19,137.87Z" transform="translate(-389.41 -94.01)"/><rect class="cls-10" x="104.86" y="94.49" width="197.85" height="8.28"/><path class="cls-10" d="M691.21,202.58H495.36a1.09,1.09,0,0,1-1.09-1.09v-2.55H692.12v2.74A.9.9,0,0,1,691.21,202.58Z" transform="translate(-389.41 -94.01)"/></g></svg>